<mxfile host="app.diagrams.net" agent="Mozilla/5.0 (Windows NT 10.0; Win64; x64; rv:128.0) Gecko/20100101 Firefox/128.0" version="24.7.17">
  <diagram id="C5RBs43oDa-KdzZeNtuy" name="Page-1">
    <mxGraphModel dx="1185" dy="1801" grid="1" gridSize="10" guides="1" tooltips="1" connect="1" arrows="1" fold="1" page="1" pageScale="1" pageWidth="827" pageHeight="1169" math="0" shadow="0">
      <root>
        <mxCell id="WIyWlLk6GJQsqaUBKTNV-0" />
        <mxCell id="WIyWlLk6GJQsqaUBKTNV-1" parent="WIyWlLk6GJQsqaUBKTNV-0" />
        <mxCell id="GpHSDcrfZG6gsjct8R8A-2" style="edgeStyle=orthogonalEdgeStyle;rounded=0;orthogonalLoop=1;jettySize=auto;html=1;" edge="1" parent="WIyWlLk6GJQsqaUBKTNV-1" source="GpHSDcrfZG6gsjct8R8A-0" target="GpHSDcrfZG6gsjct8R8A-1">
          <mxGeometry relative="1" as="geometry" />
        </mxCell>
        <mxCell id="GpHSDcrfZG6gsjct8R8A-0" value="Code checked in" style="rounded=1;whiteSpace=wrap;html=1;" vertex="1" parent="WIyWlLk6GJQsqaUBKTNV-1">
          <mxGeometry x="50" y="30" width="120" height="60" as="geometry" />
        </mxCell>
        <mxCell id="GpHSDcrfZG6gsjct8R8A-3" style="edgeStyle=orthogonalEdgeStyle;rounded=0;orthogonalLoop=1;jettySize=auto;html=1;entryX=0.5;entryY=1;entryDx=0;entryDy=0;exitX=0.5;exitY=1;exitDx=0;exitDy=0;" edge="1" parent="WIyWlLk6GJQsqaUBKTNV-1" source="GpHSDcrfZG6gsjct8R8A-1" target="GpHSDcrfZG6gsjct8R8A-0">
          <mxGeometry relative="1" as="geometry">
            <Array as="points">
              <mxPoint x="264" y="120" />
              <mxPoint x="110" y="120" />
            </Array>
          </mxGeometry>
        </mxCell>
        <mxCell id="GpHSDcrfZG6gsjct8R8A-4" value="&lt;div&gt;Fail&lt;br&gt;&lt;/div&gt;" style="edgeLabel;html=1;align=center;verticalAlign=middle;resizable=0;points=[];" vertex="1" connectable="0" parent="GpHSDcrfZG6gsjct8R8A-3">
          <mxGeometry x="0.0435" relative="1" as="geometry">
            <mxPoint as="offset" />
          </mxGeometry>
        </mxCell>
        <mxCell id="GpHSDcrfZG6gsjct8R8A-6" style="edgeStyle=orthogonalEdgeStyle;rounded=0;orthogonalLoop=1;jettySize=auto;html=1;exitX=1;exitY=0.5;exitDx=0;exitDy=0;entryX=0;entryY=0.5;entryDx=0;entryDy=0;" edge="1" parent="WIyWlLk6GJQsqaUBKTNV-1" source="GpHSDcrfZG6gsjct8R8A-1" target="GpHSDcrfZG6gsjct8R8A-8">
          <mxGeometry relative="1" as="geometry">
            <mxPoint x="420" y="60" as="targetPoint" />
          </mxGeometry>
        </mxCell>
        <mxCell id="GpHSDcrfZG6gsjct8R8A-7" value="Pass" style="edgeLabel;html=1;align=center;verticalAlign=middle;resizable=0;points=[];" vertex="1" connectable="0" parent="GpHSDcrfZG6gsjct8R8A-6">
          <mxGeometry y="1" relative="1" as="geometry">
            <mxPoint as="offset" />
          </mxGeometry>
        </mxCell>
        <mxCell id="GpHSDcrfZG6gsjct8R8A-1" value="Run syntactic &amp;amp;Unit tests" style="rhombus;whiteSpace=wrap;html=1;shadow=0;fontFamily=Helvetica;fontSize=12;align=center;strokeWidth=1;spacing=6;spacingTop=-4;" vertex="1" parent="WIyWlLk6GJQsqaUBKTNV-1">
          <mxGeometry x="214" y="10" width="100" height="100" as="geometry" />
        </mxCell>
        <mxCell id="GpHSDcrfZG6gsjct8R8A-13" style="edgeStyle=orthogonalEdgeStyle;rounded=0;orthogonalLoop=1;jettySize=auto;html=1;exitX=0.5;exitY=1;exitDx=0;exitDy=0;" edge="1" parent="WIyWlLk6GJQsqaUBKTNV-1" source="GpHSDcrfZG6gsjct8R8A-8" target="GpHSDcrfZG6gsjct8R8A-11">
          <mxGeometry relative="1" as="geometry">
            <Array as="points">
              <mxPoint x="460" y="140" />
              <mxPoint x="150" y="140" />
            </Array>
          </mxGeometry>
        </mxCell>
        <mxCell id="GpHSDcrfZG6gsjct8R8A-14" value="Feature Branch" style="edgeLabel;html=1;align=center;verticalAlign=middle;resizable=0;points=[];" vertex="1" connectable="0" parent="GpHSDcrfZG6gsjct8R8A-13">
          <mxGeometry x="0.3625" y="2" relative="1" as="geometry">
            <mxPoint as="offset" />
          </mxGeometry>
        </mxCell>
        <mxCell id="GpHSDcrfZG6gsjct8R8A-16" style="edgeStyle=orthogonalEdgeStyle;rounded=0;orthogonalLoop=1;jettySize=auto;html=1;exitX=0.5;exitY=1;exitDx=0;exitDy=0;" edge="1" parent="WIyWlLk6GJQsqaUBKTNV-1" source="GpHSDcrfZG6gsjct8R8A-8">
          <mxGeometry relative="1" as="geometry">
            <mxPoint x="374" y="220" as="targetPoint" />
          </mxGeometry>
        </mxCell>
        <mxCell id="GpHSDcrfZG6gsjct8R8A-17" value="Dev Branch" style="edgeLabel;html=1;align=center;verticalAlign=middle;resizable=0;points=[];" vertex="1" connectable="0" parent="GpHSDcrfZG6gsjct8R8A-16">
          <mxGeometry x="0.0204" y="-1" relative="1" as="geometry">
            <mxPoint as="offset" />
          </mxGeometry>
        </mxCell>
        <mxCell id="GpHSDcrfZG6gsjct8R8A-20" style="edgeStyle=orthogonalEdgeStyle;rounded=0;orthogonalLoop=1;jettySize=auto;html=1;entryX=0.5;entryY=0;entryDx=0;entryDy=0;" edge="1" parent="WIyWlLk6GJQsqaUBKTNV-1" source="GpHSDcrfZG6gsjct8R8A-8" target="GpHSDcrfZG6gsjct8R8A-25">
          <mxGeometry relative="1" as="geometry">
            <mxPoint x="630" y="220" as="targetPoint" />
          </mxGeometry>
        </mxCell>
        <mxCell id="GpHSDcrfZG6gsjct8R8A-21" value="Main Branch" style="edgeLabel;html=1;align=center;verticalAlign=middle;resizable=0;points=[];" vertex="1" connectable="0" parent="GpHSDcrfZG6gsjct8R8A-20">
          <mxGeometry x="-0.5286" relative="1" as="geometry">
            <mxPoint as="offset" />
          </mxGeometry>
        </mxCell>
        <mxCell id="GpHSDcrfZG6gsjct8R8A-8" value="Determine Environment" style="rhombus;whiteSpace=wrap;html=1;shadow=0;fontFamily=Helvetica;fontSize=12;align=center;strokeWidth=1;spacing=6;spacingTop=-4;" vertex="1" parent="WIyWlLk6GJQsqaUBKTNV-1">
          <mxGeometry x="410" y="10" width="100" height="100" as="geometry" />
        </mxCell>
        <mxCell id="GpHSDcrfZG6gsjct8R8A-18" style="edgeStyle=orthogonalEdgeStyle;rounded=0;orthogonalLoop=1;jettySize=auto;html=1;entryX=0;entryY=0.5;entryDx=0;entryDy=0;exitX=0;exitY=0.5;exitDx=0;exitDy=0;" edge="1" parent="WIyWlLk6GJQsqaUBKTNV-1" source="GpHSDcrfZG6gsjct8R8A-11" target="GpHSDcrfZG6gsjct8R8A-23">
          <mxGeometry relative="1" as="geometry">
            <mxPoint x="40" y="50" as="targetPoint" />
            <Array as="points">
              <mxPoint x="10" y="250" />
              <mxPoint x="10" y="-40" />
              <mxPoint x="80" y="-40" />
            </Array>
          </mxGeometry>
        </mxCell>
        <mxCell id="GpHSDcrfZG6gsjct8R8A-11" value="Ready to raise pull request to Dev" style="rounded=1;whiteSpace=wrap;html=1;" vertex="1" parent="WIyWlLk6GJQsqaUBKTNV-1">
          <mxGeometry x="80" y="220" width="130" height="60" as="geometry" />
        </mxCell>
        <mxCell id="GpHSDcrfZG6gsjct8R8A-22" value="Check Dev Env. is available" style="rhombus;whiteSpace=wrap;html=1;shadow=0;fontFamily=Helvetica;fontSize=12;align=center;strokeWidth=1;spacing=6;spacingTop=-4;" vertex="1" parent="WIyWlLk6GJQsqaUBKTNV-1">
          <mxGeometry x="300" y="220" width="148" height="100" as="geometry" />
        </mxCell>
        <mxCell id="GpHSDcrfZG6gsjct8R8A-24" style="edgeStyle=orthogonalEdgeStyle;rounded=0;orthogonalLoop=1;jettySize=auto;html=1;entryX=0.5;entryY=0;entryDx=0;entryDy=0;" edge="1" parent="WIyWlLk6GJQsqaUBKTNV-1" source="GpHSDcrfZG6gsjct8R8A-23" target="GpHSDcrfZG6gsjct8R8A-0">
          <mxGeometry relative="1" as="geometry" />
        </mxCell>
        <mxCell id="GpHSDcrfZG6gsjct8R8A-23" value="start" style="ellipse;whiteSpace=wrap;html=1;" vertex="1" parent="WIyWlLk6GJQsqaUBKTNV-1">
          <mxGeometry x="80" y="-60" width="60" height="50" as="geometry" />
        </mxCell>
        <mxCell id="GpHSDcrfZG6gsjct8R8A-25" value="Check Prod Env. is available" style="rhombus;whiteSpace=wrap;html=1;shadow=0;fontFamily=Helvetica;fontSize=12;align=center;strokeWidth=1;spacing=6;spacingTop=-4;" vertex="1" parent="WIyWlLk6GJQsqaUBKTNV-1">
          <mxGeometry x="550" y="220" width="148" height="100" as="geometry" />
        </mxCell>
      </root>
    </mxGraphModel>
  </diagram>
</mxfile>
